<svg width="27" height="27" viewBox="0 0 27 27" fill="none" xmlns="http://www.w3.org/2000/svg">
<path d="M19.8149 17.4553C21.1493 15.6386 21.9375 13.3957 21.9375 10.9688C21.9375 4.91088 17.0266 0 10.9688 0C4.91088 0 0 4.91088 0 10.9688C0 17.0266 4.91088 21.9375 10.9688 21.9375C13.3964 21.9375 15.6398 21.1489 17.4568 19.8138L17.4553 19.8149C17.5051 19.8824 17.5605 19.947 17.6216 20.0081L24.1193 26.5057C24.7783 27.1648 25.8467 27.1648 26.5057 26.5057C27.1648 25.8467 27.1648 24.7783 26.5057 24.1193L20.0081 17.6216C19.947 17.5605 19.8824 17.5051 19.8149 17.4553ZM20.25 10.9688C20.25 16.0946 16.0946 20.25 10.9688 20.25C5.84286 20.25 1.6875 16.0946 1.6875 10.9688C1.6875 5.84286 5.84286 1.6875 10.9688 1.6875C16.0946 1.6875 20.25 5.84286 20.25 10.9688Z" fill="#212529"/>
</svg>
