<svg width="19" height="17" viewBox="0 0 19 22" fill="none" xmlns="http://www.w3.org/2000/svg">
<path d="M1.59375 1.4375C0.799841 1.4375 0.15625 2.08109 0.15625 2.875V4.3125C0.15625 5.10641 0.799841 5.75 1.59375 5.75H2.3125V18.6875C2.3125 20.2753 3.59968 21.5625 5.1875 21.5625H13.8125C15.4003 21.5625 16.6875 20.2753 16.6875 18.6875V5.75H17.4062C18.2002 5.75 18.8438 5.10641 18.8438 4.3125V2.875C18.8438 2.08109 18.2002 1.4375 17.4062 1.4375H12.375C12.375 0.643591 11.7314 0 10.9375 0H8.0625C7.26859 0 6.625 0.643591 6.625 1.4375H1.59375ZM5.90625 7.1875C6.30321 7.1875 6.625 7.50929 6.625 7.90625V17.9688C6.625 18.3657 6.3032 18.6875 5.90625 18.6875C5.5093 18.6875 5.1875 18.3657 5.1875 17.9688L5.1875 7.90625C5.1875 7.50929 5.5093 7.1875 5.90625 7.1875ZM9.5 7.1875C9.89695 7.1875 10.2188 7.50929 10.2188 7.90625V17.9688C10.2187 18.3657 9.89695 18.6875 9.5 18.6875C9.10305 18.6875 8.78125 18.3657 8.78125 17.9688V7.90625C8.78125 7.50929 9.10305 7.1875 9.5 7.1875ZM13.8125 7.90625V17.9688C13.8125 18.3657 13.4907 18.6875 13.0938 18.6875C12.6968 18.6875 12.375 18.3657 12.375 17.9688V7.90625C12.375 7.50929 12.6968 7.1875 13.0938 7.1875C13.4907 7.1875 13.8125 7.50929 13.8125 7.90625Z" fill="#212529"/>
</svg>
